<svg xmlns="http://www.w3.org/2000/svg" width="58" height="19" viewBox="0 0 58 19"><g fill="#000" fill-rule="evenodd"><path d="M56 2L57.5 2 51.5 20 50 20zM40.08 2.308c3.16 0 5.065.845 6.895 2.387l-2.432 2.909c-1.354-1.12-2.557-1.765-4.588-1.765-2.807 0-5.039 2.46-5.039 5.42v.049c0 3.182 2.207 5.52 5.315 5.52 1.404 0 2.658-.349 3.635-1.045v-2.486h-3.885V9.99h7.62v7.559c-1.804 1.516-4.286 2.76-7.495 2.76-5.465 0-9.226-3.805-9.226-8.951v-.05c0-4.947 3.886-9 9.2-9zm-33.236.05c2.557 0 4.738.795 6.518 2.212l-2.006 2.884C9.802 6.385 8.273 5.74 6.794 5.74c-1.48 0-2.257.671-2.257 1.517v.05c0 1.143.752 1.516 3.786 2.287 3.56.92 5.565 2.188 5.565 5.22v.05c0 3.456-2.657 5.395-6.442 5.395-2.658 0-5.34-.92-7.446-2.784l2.281-2.71c1.58 1.292 3.234 2.113 5.24 2.113 1.58 0 2.532-.621 2.532-1.64v-.05c0-.97-.602-1.467-3.535-2.213-3.535-.895-5.816-1.865-5.816-5.32v-.05c0-3.158 2.557-5.246 6.142-5.246zm15.417 0c2.557 0 4.738.795 6.518 2.212l-2.005 2.884C25.219 6.385 23.69 5.74 22.21 5.74c-1.48 0-2.256.671-2.256 1.517v.05c0 1.143.752 1.516 3.785 2.287 3.56.92 5.565 2.188 5.565 5.22v.05c0 3.456-2.657 5.395-6.442 5.395-2.657 0-5.34-.92-7.446-2.784l2.281-2.71c1.58 1.292 3.235 2.113 5.24 2.113 1.58 0 2.532-.621 2.532-1.64v-.05c0-.97-.602-1.467-3.535-2.213-3.534-.895-5.816-1.865-5.816-5.32v-.05c0-3.158 2.557-5.246 6.142-5.246z" transform="translate(0 -17) translate(0 15)"/></g></svg>