<svg xmlns="http://www.w3.org/2000/svg" width="112" height="50" viewBox="0 0 112 50"><g fill="none" fill-rule="evenodd"><path fill="#000" d="M40.58 16c3.16 0 5.065.845 6.895 2.387l-2.432 2.908c-1.354-1.118-2.557-1.765-4.588-1.765-2.807 0-5.039 2.462-5.039 5.42V25c0 3.182 2.207 5.52 5.315 5.52 1.404 0 2.658-.349 3.635-1.045v-2.486h-3.885v-3.307h7.62v7.558C46.298 32.757 43.816 34 40.607 34c-5.465 0-9.226-3.804-9.226-8.95V25c0-4.948 3.886-9 9.2-9zm25.011 0c3.31 0 5.29 1.094 6.919 2.685l-2.457 2.81c-1.353-1.219-2.732-1.965-4.487-1.965-2.958 0-5.089 2.437-5.089 5.42V25c0 2.983 2.08 5.47 5.089 5.47 2.005 0 3.234-.796 4.613-2.039l2.457 2.461C70.83 32.807 68.825 34 65.44 34c-5.165 0-9-3.953-9-8.95V25c0-4.948 3.76-9 9.15-9zm17.071 0c5.415 0 9.301 4.003 9.301 8.95V25c0 4.948-3.936 9-9.35 9-5.415 0-9.301-4.003-9.301-8.95V25c0-4.948 3.936-9 9.35-9zm-75.318.05c2.557 0 4.738.795 6.518 2.212l-2.006 2.884c-1.554-1.069-3.083-1.715-4.562-1.715-1.48 0-2.257.671-2.257 1.516v.05c0 1.144.752 1.517 3.786 2.288 3.56.92 5.565 2.187 5.565 5.22v.05c0 3.456-2.657 5.395-6.442 5.395-2.658 0-5.34-.92-7.446-2.784l2.281-2.71c1.58 1.292 3.234 2.113 5.24 2.113 1.58 0 2.532-.622 2.532-1.64v-.05c0-.97-.602-1.467-3.535-2.213-3.535-.895-5.816-1.865-5.816-5.32v-.05c0-3.158 2.557-5.247 6.142-5.247zm15.417 0c2.557 0 4.738.795 6.518 2.212l-2.005 2.884c-1.555-1.069-3.084-1.715-4.563-1.715-1.48 0-2.256.671-2.256 1.516v.05c0 1.144.752 1.517 3.785 2.288 3.56.92 5.565 2.187 5.565 5.22v.05c0 3.456-2.657 5.395-6.442 5.395-2.657 0-5.34-.92-7.446-2.784l2.281-2.71c1.58 1.292 3.235 2.113 5.24 2.113 1.58 0 2.532-.622 2.532-1.64v-.05c0-.97-.602-1.467-3.535-2.213-3.534-.895-5.816-1.865-5.816-5.32v-.05c0-3.158 2.557-5.247 6.142-5.247zm30.47 13.506c1.202 0 2.176.966 2.176 2.157s-.974 2.157-2.175 2.157c-1.202 0-2.175-.966-2.175-2.157s.973-2.157 2.175-2.157zM97.93 16.298l4.613 7.36 4.613-7.36h4.16v17.404h-3.835V22.34l-4.938 7.433h-.1l-4.89-7.359v11.288h-3.784V16.298h4.16zM82.612 19.53c-3.108 0-5.264 2.437-5.264 5.42V25c0 2.983 2.206 5.47 5.314 5.47 3.11 0 5.265-2.437 5.265-5.42V25c0-2.984-2.206-5.47-5.315-5.47z"/></g></svg>